<mxfile host="app.diagrams.net" modified="2024-07-01T03:03:39.430Z" agent="Mozilla/5.0 (Windows NT 10.0; Win64; x64) AppleWebKit/537.36 (KHTML, like Gecko) Chrome/126.0.0.0 Safari/537.36" etag="A9WY_oBWJTzHPA-IYewh" version="24.6.3" type="device">
  <diagram name="PÃ¡gina-1" id="-hl80VwRCEBR7k2WWGzT">
    <mxGraphModel dx="1032" dy="539" grid="1" gridSize="10" guides="1" tooltips="1" connect="1" arrows="1" fold="1" page="1" pageScale="1" pageWidth="827" pageHeight="1169" math="0" shadow="0">
      <root>
        <mxCell id="0" />
        <mxCell id="1" parent="0" />
        <mxCell id="_OrLw2awBMINR5Ud9afh-12" value="" style="endArrow=none;html=1;rounded=0;entryX=0.5;entryY=1;entryDx=0;entryDy=0;exitX=0.5;exitY=0;exitDx=0;exitDy=0;" parent="1" source="AcX0HIqRr1pyEg25F6Sg-19" target="AcX0HIqRr1pyEg25F6Sg-15" edge="1">
          <mxGeometry width="50" height="50" relative="1" as="geometry">
            <mxPoint x="690" y="300" as="sourcePoint" />
            <mxPoint x="720" y="200" as="targetPoint" />
          </mxGeometry>
        </mxCell>
        <mxCell id="_OrLw2awBMINR5Ud9afh-13" value="" style="endArrow=none;html=1;rounded=0;entryX=1;entryY=1;entryDx=0;entryDy=0;exitX=0;exitY=0;exitDx=0;exitDy=0;" parent="1" source="AcX0HIqRr1pyEg25F6Sg-14" target="AcX0HIqRr1pyEg25F6Sg-11" edge="1">
          <mxGeometry width="50" height="50" relative="1" as="geometry">
            <mxPoint x="350" y="70" as="sourcePoint" />
            <mxPoint x="330" y="180" as="targetPoint" />
          </mxGeometry>
        </mxCell>
        <mxCell id="_OrLw2awBMINR5Ud9afh-14" value="" style="endArrow=none;html=1;rounded=0;entryX=0.5;entryY=1;entryDx=0;entryDy=0;exitX=0.5;exitY=0;exitDx=0;exitDy=0;" parent="1" source="AcX0HIqRr1pyEg25F6Sg-14" target="AcX0HIqRr1pyEg25F6Sg-12" edge="1">
          <mxGeometry width="50" height="50" relative="1" as="geometry">
            <mxPoint x="440" y="210" as="sourcePoint" />
            <mxPoint x="400" y="180" as="targetPoint" />
          </mxGeometry>
        </mxCell>
        <mxCell id="_OrLw2awBMINR5Ud9afh-16" value="" style="endArrow=none;html=1;rounded=0;entryX=1;entryY=0.5;entryDx=0;entryDy=0;exitX=0;exitY=0.5;exitDx=0;exitDy=0;" parent="1" source="AcX0HIqRr1pyEg25F6Sg-14" target="AcX0HIqRr1pyEg25F6Sg-10" edge="1">
          <mxGeometry width="50" height="50" relative="1" as="geometry">
            <mxPoint x="80" y="310" as="sourcePoint" />
            <mxPoint x="300" y="215" as="targetPoint" />
          </mxGeometry>
        </mxCell>
        <mxCell id="AcX0HIqRr1pyEg25F6Sg-8" value="" style="endArrow=none;html=1;rounded=0;entryX=0;entryY=1;entryDx=0;entryDy=0;exitX=1;exitY=0;exitDx=0;exitDy=0;" parent="1" source="AcX0HIqRr1pyEg25F6Sg-19" target="AcX0HIqRr1pyEg25F6Sg-17" edge="1">
          <mxGeometry width="50" height="50" relative="1" as="geometry">
            <mxPoint x="760" y="260" as="sourcePoint" />
            <mxPoint x="800" y="230" as="targetPoint" />
          </mxGeometry>
        </mxCell>
        <mxCell id="AcX0HIqRr1pyEg25F6Sg-9" value="" style="endArrow=none;html=1;rounded=0;entryX=0;entryY=0.5;entryDx=0;entryDy=0;exitX=1;exitY=0.5;exitDx=0;exitDy=0;" parent="1" target="AcX0HIqRr1pyEg25F6Sg-18" edge="1">
          <mxGeometry width="50" height="50" relative="1" as="geometry">
            <mxPoint x="760" y="275" as="sourcePoint" />
            <mxPoint x="800" y="275" as="targetPoint" />
          </mxGeometry>
        </mxCell>
        <mxCell id="AcX0HIqRr1pyEg25F6Sg-10" value="&lt;font style=&quot;font-size: 14px;&quot;&gt;Fecha&lt;/font&gt;&lt;div style=&quot;font-size: 14px;&quot;&gt;&lt;font style=&quot;font-size: 14px;&quot;&gt;y Hora&lt;/font&gt;&lt;/div&gt;" style="ellipse;whiteSpace=wrap;html=1;align=center;" parent="1" vertex="1">
          <mxGeometry x="170" y="200" width="100" height="40" as="geometry" />
        </mxCell>
        <mxCell id="AcX0HIqRr1pyEg25F6Sg-11" value="&lt;font style=&quot;font-size: 14px;&quot;&gt;Latitud&lt;/font&gt;" style="ellipse;whiteSpace=wrap;html=1;align=center;" parent="1" vertex="1">
          <mxGeometry x="250" y="155" width="70" height="40" as="geometry" />
        </mxCell>
        <mxCell id="AcX0HIqRr1pyEg25F6Sg-12" value="&lt;font style=&quot;font-size: 14px;&quot;&gt;Longitud&lt;/font&gt;" style="ellipse;whiteSpace=wrap;html=1;align=center;" parent="1" vertex="1">
          <mxGeometry x="340" y="155" width="80" height="40" as="geometry" />
        </mxCell>
        <mxCell id="AcX0HIqRr1pyEg25F6Sg-14" value="&lt;span style=&quot;font-size: 14px;&quot;&gt;&lt;b&gt;DATOS_MEDICION&lt;/b&gt;&lt;/span&gt;" style="shape=ext;margin=3;double=1;whiteSpace=wrap;html=1;align=center;fillColor=#f8cecc;strokeColor=#b85450;" parent="1" vertex="1">
          <mxGeometry x="310" y="240" width="130" height="50" as="geometry" />
        </mxCell>
        <mxCell id="AcX0HIqRr1pyEg25F6Sg-15" value="&lt;font style=&quot;font-size: 14px;&quot;&gt;&lt;b&gt;Id_collar*&lt;/b&gt;&lt;/font&gt;" style="ellipse;whiteSpace=wrap;html=1;align=center;fontStyle=4;fillColor=#d5e8d4;strokeColor=#82b366;" parent="1" vertex="1">
          <mxGeometry x="670" y="150" width="100" height="50" as="geometry" />
        </mxCell>
        <mxCell id="AcX0HIqRr1pyEg25F6Sg-17" value="&lt;font style=&quot;font-size: 14px;&quot;&gt;Tipo_animal&lt;/font&gt;" style="ellipse;whiteSpace=wrap;html=1;align=center;" parent="1" vertex="1">
          <mxGeometry x="785" y="185" width="100" height="40" as="geometry" />
        </mxCell>
        <mxCell id="AcX0HIqRr1pyEg25F6Sg-18" value="&lt;font style=&quot;font-size: 14px;&quot;&gt;Raza&lt;/font&gt;" style="ellipse;whiteSpace=wrap;html=1;align=center;" parent="1" vertex="1">
          <mxGeometry x="810" y="250" width="100" height="40" as="geometry" />
        </mxCell>
        <mxCell id="AcX0HIqRr1pyEg25F6Sg-19" value="&lt;b&gt;&lt;font style=&quot;font-size: 14px;&quot;&gt;COLLAR&lt;/font&gt;&lt;/b&gt;" style="whiteSpace=wrap;html=1;align=center;fillColor=#f8cecc;strokeColor=#b85450;" parent="1" vertex="1">
          <mxGeometry x="670" y="245" width="100" height="40" as="geometry" />
        </mxCell>
        <mxCell id="if6BDhI6iaWj9KLOvkDf-1" value="MEDICION" style="shape=rhombus;double=1;perimeter=rhombusPerimeter;whiteSpace=wrap;html=1;align=center;fillColor=#b1ddf0;strokeColor=#10739e;" vertex="1" parent="1">
          <mxGeometry x="500" y="235" width="120" height="60" as="geometry" />
        </mxCell>
        <mxCell id="if6BDhI6iaWj9KLOvkDf-2" value="" style="endArrow=none;html=1;rounded=0;exitX=1;exitY=0.5;exitDx=0;exitDy=0;entryX=0;entryY=0.5;entryDx=0;entryDy=0;" edge="1" parent="1" source="AcX0HIqRr1pyEg25F6Sg-14" target="if6BDhI6iaWj9KLOvkDf-1">
          <mxGeometry relative="1" as="geometry">
            <mxPoint x="450" y="280" as="sourcePoint" />
            <mxPoint x="610" y="280" as="targetPoint" />
          </mxGeometry>
        </mxCell>
        <mxCell id="if6BDhI6iaWj9KLOvkDf-3" value="" style="endArrow=none;html=1;rounded=0;entryX=0;entryY=0.5;entryDx=0;entryDy=0;exitX=1;exitY=0.5;exitDx=0;exitDy=0;" edge="1" parent="1" source="if6BDhI6iaWj9KLOvkDf-1" target="AcX0HIqRr1pyEg25F6Sg-19">
          <mxGeometry relative="1" as="geometry">
            <mxPoint x="450" y="280" as="sourcePoint" />
            <mxPoint x="610" y="280" as="targetPoint" />
          </mxGeometry>
        </mxCell>
      </root>
    </mxGraphModel>
  </diagram>
</mxfile>
